<svg width="16" height="14" viewBox="0 0 16 14" fill="none" xmlns="http://www.w3.org/2000/svg">
<path d="M8.00016 3.66667C8.00016 2.95942 7.71921 2.28115 7.21911 1.78105C6.71902 1.28095 6.04074 1 5.3335 1H1.3335V11H6.00016C6.5306 11 7.0393 11.2107 7.41438 11.5858C7.78945 11.9609 8.00016 12.4696 8.00016 13M8.00016 3.66667V13M8.00016 3.66667C8.00016 2.95942 8.28111 2.28115 8.78121 1.78105C9.28131 1.28095 9.95959 1 10.6668 1H14.6668V11H10.0002C9.46973 11 8.96102 11.2107 8.58595 11.5858C8.21088 11.9609 8.00016 12.4696 8.00016 13" stroke="#303032" stroke-width="1.5" stroke-linecap="round" stroke-linejoin="round"/>
</svg>
