<svg width="16" height="16" viewBox="0 0 16 16" fill="none" xmlns="http://www.w3.org/2000/svg">
<path d="M10.6668 2.33333C10.6668 1.78105 10.2191 1.33333 9.66683 1.33333C9.11454 1.33333 8.66683 1.78105 8.66683 2.33333V5.66667C8.66683 6.21895 9.11454 6.66667 9.66683 6.66667C10.2191 6.66667 10.6668 6.21895 10.6668 5.66667V2.33333Z" stroke="#303032" stroke-width="1.5" stroke-linecap="round" stroke-linejoin="round"/>
<path d="M12.6668 5.66667V6.66667H13.6668C13.8646 6.66667 14.058 6.60802 14.2224 6.49814C14.3868 6.38826 14.515 6.23208 14.5907 6.04935C14.6664 5.86663 14.6862 5.66556 14.6476 5.47158C14.609 5.2776 14.5138 5.09941 14.3739 4.95956C14.2341 4.81971 14.0559 4.72447 13.8619 4.68588C13.6679 4.6473 13.4669 4.6671 13.2841 4.74279C13.1014 4.81848 12.9452 4.94665 12.8354 5.1111C12.7255 5.27555 12.6668 5.46889 12.6668 5.66667Z" stroke="#303032" stroke-width="1.5" stroke-linecap="round" stroke-linejoin="round"/>
<path d="M7.3335 10.3333C7.3335 9.78105 6.88578 9.33333 6.3335 9.33333C5.78121 9.33333 5.3335 9.78105 5.3335 10.3333V13.6667C5.3335 14.219 5.78121 14.6667 6.3335 14.6667C6.88578 14.6667 7.3335 14.219 7.3335 13.6667V10.3333Z" stroke="#303032" stroke-width="1.5" stroke-linecap="round" stroke-linejoin="round"/>
<path d="M3.3335 10.3333V9.33333H2.3335C2.13572 9.33333 1.94238 9.39198 1.77793 9.50186C1.61348 9.61175 1.4853 9.76792 1.40962 9.95065C1.33393 10.1334 1.31413 10.3344 1.35271 10.5284C1.3913 10.7224 1.48654 10.9006 1.62639 11.0404C1.76624 11.1803 1.94443 11.2755 2.13841 11.3141C2.33239 11.3527 2.53345 11.3329 2.71618 11.2572C2.89891 11.1815 3.05508 11.0534 3.16497 10.8889C3.27485 10.7245 3.3335 10.5311 3.3335 10.3333Z" stroke="#303032" stroke-width="1.5" stroke-linecap="round" stroke-linejoin="round"/>
<path d="M13.6668 8.66667H10.3335C9.78121 8.66667 9.3335 9.11438 9.3335 9.66667C9.3335 10.219 9.78121 10.6667 10.3335 10.6667H13.6668C14.2191 10.6667 14.6668 10.219 14.6668 9.66667C14.6668 9.11438 14.2191 8.66667 13.6668 8.66667Z" stroke="#303032" stroke-width="1.5" stroke-linecap="round" stroke-linejoin="round"/>
<path d="M10.3335 12.6667H9.3335V13.6667C9.3335 13.8644 9.39215 14.0578 9.50203 14.2222C9.61191 14.3867 9.76809 14.5149 9.95081 14.5905C10.1335 14.6662 10.3346 14.686 10.5286 14.6475C10.7226 14.6089 10.9008 14.5136 11.0406 14.3738C11.1805 14.2339 11.2757 14.0557 11.3143 13.8618C11.3529 13.6678 11.3331 13.4667 11.2574 13.284C11.1817 13.1013 11.0535 12.9451 10.8891 12.8352C10.7246 12.7253 10.5313 12.6667 10.3335 12.6667Z" stroke="#303032" stroke-width="1.5" stroke-linecap="round" stroke-linejoin="round"/>
<path d="M5.66683 5.33333H2.3335C1.78121 5.33333 1.3335 5.78105 1.3335 6.33333C1.3335 6.88562 1.78121 7.33333 2.3335 7.33333H5.66683C6.21911 7.33333 6.66683 6.88562 6.66683 6.33333C6.66683 5.78105 6.21911 5.33333 5.66683 5.33333Z" stroke="#303032" stroke-width="1.5" stroke-linecap="round" stroke-linejoin="round"/>
<path d="M5.66683 3.33333H6.66683V2.33333C6.66683 2.13555 6.60818 1.94221 6.4983 1.77776C6.38842 1.61331 6.23224 1.48514 6.04951 1.40945C5.86679 1.33377 5.66572 1.31396 5.47174 1.35255C5.27776 1.39113 5.09958 1.48638 4.95972 1.62623C4.81987 1.76608 4.72463 1.94426 4.68604 2.13824C4.64746 2.33223 4.66726 2.53329 4.74295 2.71602C4.81864 2.89874 4.94681 3.05492 5.11126 3.1648C5.27571 3.27469 5.46905 3.33333 5.66683 3.33333Z" stroke="#303032" stroke-width="1.5" stroke-linecap="round" stroke-linejoin="round"/>
</svg>
