<svg width="36" height="20" viewBox="0 0 36 20" fill="none" xmlns="http://www.w3.org/2000/svg">
<rect width="36" height="20" rx="10" fill="#EAF3FF"/>
<path d="M8.488 7.68H11.336C11.864 7.68 12.256 7.8 12.512 8.04C12.768 8.28 12.896 8.59467 12.896 8.984C12.896 9.352 12.7947 9.64 12.592 9.848C12.3947 10.056 12.1413 10.1893 11.832 10.248C12.1787 10.3067 12.456 10.4427 12.664 10.656C12.872 10.8693 12.976 11.1707 12.976 11.56C12.976 12.008 12.8293 12.36 12.536 12.616C12.248 12.872 11.8293 13 11.28 13H8.488V7.68ZM11.096 12.208C11.3733 12.208 11.576 12.136 11.704 11.992C11.8373 11.848 11.904 11.6587 11.904 11.424C11.904 10.8853 11.5973 10.616 10.984 10.616H9.512V12.208H11.096ZM10.984 9.904C11.2827 9.904 11.4987 9.84267 11.632 9.72C11.7653 9.59733 11.832 9.416 11.832 9.176C11.832 8.936 11.7733 8.76 11.656 8.648C11.5387 8.53067 11.3387 8.472 11.056 8.472H9.512V9.904H10.984ZM14.7854 12.184H17.8814V13H13.7614V7.68H17.8574V8.496H14.7854V9.896H17.6174V10.672H14.7854V12.184ZM20.1456 8.496H18.3456V7.68H22.9616V8.496H21.1696V13H20.1456V8.496ZM26.799 13L26.367 11.824H23.895L23.463 13H22.439L24.359 7.68H25.911L27.831 13H26.799ZM26.087 11.024L25.127 8.4L24.175 11.024H26.087Z" fill="#1A6AED"/>
</svg>
